<?xml version="1.0" encoding="utf-8"?>
<!-- Generator: Adobe Illustrator 27.0.1, SVG Export Plug-In . SVG Version: 6.00 Build 0)  -->
<svg version="1.1" id="Layer_1" xmlns="http://www.w3.org/2000/svg" xmlns:xlink="http://www.w3.org/1999/xlink" x="0px" y="0px"
	 viewBox="0 0 512 512" style="enable-background:new 0 0 512 512;" xml:space="preserve">
<path d="M171.3,306.8c0.3,5.2-7.7,5.7-8,0.5c-1-16.9-1.6-35.3-1.6-52.4c0-5.3,8-5.3,8,0C169.8,272.9,170.2,289.3,171.3,306.8
	L171.3,306.8z M264.6,385.5c0.9-5.2,8.8-3.7,7.9,1.4c-5.5,30.5-20.8,97-50,97c-18.1,0-29.9-25.7-36.3-43.5c-1.8-4.9,5.7-7.6,7.5-2.7
	c5,13.8,15.6,38.2,28.8,38.2c7.7,0,15.3-8.1,22.3-22.4C252.6,437.5,259.5,414,264.6,385.5L264.6,385.5z M271.8,177.9
	c-3.3-36.1-9.5-73.4-19.2-102c-26.7,14.9-36.1,48.7-20.8,75.2C240.1,165.4,254.6,175.6,271.8,177.9L271.8,177.9z M267.5,368.2
	c8.4-57.1,9.7-124.2,5-182.2c-2.7-0.3-7.1-1-9.8-1.8c-10.3-2.8-19.3-8-26.6-14.9l-24.3-5.4l-72.3,33.4c-7,3.2-11.6,9.1-13,16.7
	l-6.9,37.1c-3.4,19.7,19.4,26.6,27,3.7l0,0l9.8-30l0,0c0.4-1.2,1.3-2.2,2.5-2.6l42.5-14.2c2.9-1,5.8,1.6,5.2,4.6l-18.7,84
	c0,0.1,0,0.2-0.1,0.4L172,356.8c-2,7.8-6.4,13.8-13.2,18.1l-48.6,31.4c-23.4,15.1-7.2,47.6,18.6,36.9l70.6-29.4
	c6-2.5,10.1-6.7,12.5-12.7l21-52.6l0,0c1-2.4,4-3.3,6.1-1.7L267.5,368.2z M280.5,186.4c4.8,59.7,3.3,128.5-5.8,187.3l9.9,7.4
	c10.2,7.7,14.6,20.2,11.4,32.5l-7.1,27.7c-5.9,22.6,28.1,32.6,35.5,10.4l18.3-55.6c2.6-7.9,1-15.8-4.3-22.1l-48.2-56.6
	c-0.8-0.8-1.2-1.9-1.2-3.1l4.3-70.2c0.2-4.1,5.3-5.3,7.3-2.1l15.4,23.5c4.8,7.4,12.7,11.1,21.5,10.3l56-5.4
	c25.3-2.5,24.4-29.1-0.9-30.9l-48-3.5l0,0c-1.2-0.1-2.4-0.7-3.1-1.8l-30.7-48.2l-11.9-2.6C293.1,185.2,286.9,186.3,280.5,186.4
	L280.5,186.4z M259.9,72.5c10.1,29.7,16.5,68.5,19.9,105.9c9.5-0.1,18.7-2.7,26.7-7.3v0c12.2-7.3,21.5-18.3,25.5-33.2
	c7.8-29.2-9.5-59.2-38.7-67C281.9,67.8,270.3,68.6,259.9,72.5L259.9,72.5z M175.3,157.8c-0.6,5.2-8.6,4.3-7.9-0.9
	c4.7-38.6,12.1-71.3,21.3-94.1c9.4-23.3,20.9-36.9,33.8-36.9c15.2,0,25.9,18.3,32.2,32.8c0.9,2-0.1,4.4-2.1,5.2
	c-2,0.9-4.4-0.1-5.2-2.1c-4.8-11.1-13.9-28-24.9-28c-9.2,0-18.3,11.7-26.4,31.8C187.2,87.9,180,119.8,175.3,157.8L175.3,157.8z"/>
</svg>
