# Blender 3.3.1
# www.blender.org
mtllib glassA low poly.mtl
o Retopo_Cylinder
v 0.028038 0.000985 0.019688
v 0.024063 0.014297 0.019685
v 0.025037 -0.012355 0.019676
v -0.009168 -0.026379 0.019679
v 0.004719 -0.027538 0.019681
v 0.016875 -0.022437 0.019689
v -0.025795 0.010950 0.019687
v -0.027664 -0.004857 0.019690
v -0.021212 -0.018364 0.019688
v -0.000133 0.027959 0.019683
v -0.015351 0.023419 0.019686
v 0.014232 0.024019 0.019676
v 0.030701 0.018662 0.033648
v 0.017427 0.031419 0.033657
v -0.000972 0.035882 0.033641
v 0.018396 0.034334 0.049789
v -0.001544 0.038922 0.049821
v -0.021565 0.032404 0.049803
v -0.019862 0.029913 0.033585
v -0.035393 0.016270 0.049759
v -0.032784 0.014657 0.033556
v -0.038684 -0.004457 0.049772
v -0.035619 -0.004678 0.033558
v -0.030942 -0.023620 0.049796
v -0.028033 -0.022441 0.033641
v -0.014984 -0.035967 0.049796
v -0.012734 -0.033609 0.033643
v 0.004553 -0.038682 0.049845
v 0.005078 -0.035568 0.033683
v 0.022545 -0.031752 0.049867
v 0.021056 -0.029124 0.033677
v 0.035014 -0.017153 0.049825
v 0.032144 -0.016066 0.033668
v 0.038899 0.001920 0.049860
v 0.035902 0.001540 0.033657
v 0.033018 0.020653 0.049816
v 0.040648 0.002264 0.066218
v 0.034294 0.021965 0.066218
v 0.018802 0.036121 0.066216
v 0.035260 0.022952 0.082555
v 0.019058 0.037489 0.082556
v -0.002479 0.042005 0.082548
v -0.002046 0.040689 0.066212
v -0.023504 0.034862 0.082540
v -0.022665 0.033823 0.066207
v -0.038125 0.017823 0.082544
v -0.036947 0.017179 0.066208
v -0.041859 -0.004064 0.082555
v -0.040488 -0.004261 0.066206
v -0.033995 -0.024769 0.082554
v -0.032708 -0.024262 0.066214
v -0.017026 -0.038454 0.082549
v -0.016183 -0.037376 0.066219
v 0.004148 -0.041864 0.082552
v 0.004320 -0.040493 0.066219
v 0.024112 -0.034449 0.082556
v 0.023461 -0.033270 0.066215
v 0.037896 -0.018344 0.082555
v 0.036677 -0.017826 0.066214
v 0.041968 0.002616 0.082552
v 0.038976 -0.018775 0.098875
v 0.043046 0.002900 0.098875
v 0.036002 0.023927 0.098875
v 0.019267 0.038606 0.098875
v -0.002818 0.043142 0.098875
v -0.024173 0.035734 0.098875
v -0.039118 0.018419 0.098875
v -0.042969 -0.003923 0.098875
v -0.035156 -0.025110 0.098875
v -0.017773 -0.039325 0.098875
v 0.004014 -0.043025 0.098875
v 0.024758 -0.035335 0.098875
v 0.040862 -0.019708 0.098724
v 0.045141 0.003046 0.098724
v 0.037741 0.025116 0.098724
v 0.020171 0.040501 0.098724
v -0.002985 0.045241 0.098724
v -0.025327 0.037489 0.098724
v -0.041018 0.019324 0.098724
v -0.045064 -0.004061 0.098724
v -0.036908 -0.026281 0.098724
v -0.018672 -0.041223 0.098724
v 0.004165 -0.045125 0.098724
v 0.025958 -0.037058 0.098724
v 0.004120 -0.044137 0.082213
v 0.025322 -0.035732 0.082198
v 0.038578 -0.019659 0.082343
v 0.024834 -0.034430 0.066036
v 0.037050 -0.019736 0.066083
v 0.043604 0.003032 0.065953
v 0.044754 0.002902 0.082531
v 0.034288 0.023484 0.066177
v 0.035770 0.023946 0.082725
v 0.018829 0.039483 0.065965
v 0.019571 0.040380 0.082564
v -0.004791 0.041701 0.066084
v -0.003980 0.043085 0.082388
v -0.022907 0.035791 0.066033
v -0.024128 0.036490 0.082211
v -0.038716 0.018871 0.065950
v -0.040040 0.019358 0.082241
v -0.041632 -0.001407 0.066091
v -0.042950 -0.002808 0.082594
v -0.035847 -0.025141 0.065949
v -0.036664 -0.026032 0.082609
v -0.015691 -0.038670 0.066112
v -0.016921 -0.039662 0.082520
v 0.003454 -0.042943 0.065987
v -0.015792 -0.037279 0.049747
v 0.003285 -0.041758 0.049611
v 0.024083 -0.033437 0.049632
v 0.003853 -0.040418 0.033319
v 0.023745 -0.032556 0.033366
v 0.035514 -0.017376 0.033361
v 0.036170 -0.018663 0.049720
v 0.040977 0.003121 0.033096
v 0.042353 0.003325 0.049600
v 0.032475 0.022099 0.033276
v 0.033324 0.022798 0.049781
v 0.018100 0.036897 0.033089
v 0.018620 0.038178 0.049598
v -0.003467 0.039408 0.033355
v -0.004243 0.040486 0.049705
v -0.021809 0.033795 0.033366
v -0.022224 0.034751 0.049631
v -0.036431 0.018188 0.033299
v -0.037645 0.018350 0.049604
v -0.039343 -0.001524 0.033277
v -0.040431 -0.001510 0.049786
v -0.034131 -0.022958 0.032993
v -0.035174 -0.023953 0.049605
v -0.015648 -0.036139 0.033276
v -0.032568 -0.021881 0.016859
v -0.015824 -0.035674 0.016951
v 0.004555 -0.038998 0.016874
v -0.016011 -0.035135 0.000801
v 0.004833 -0.038310 0.000801
v 0.023832 -0.030473 0.000801
v 0.023555 -0.031428 0.016894
v 0.035477 -0.015267 0.000801
v 0.035552 -0.016196 0.016926
v 0.038439 0.003625 0.000801
v 0.039066 0.003506 0.016891
v 0.032061 0.021674 0.000801
v 0.032230 0.021809 0.016941
v 0.017854 0.034247 0.000801
v 0.017733 0.034981 0.016887
v -0.001160 0.038602 0.000801
v -0.002173 0.039013 0.016935
v -0.020351 0.032846 0.000801
v -0.021065 0.033143 0.016906
v -0.034268 0.017851 0.000801
v -0.035024 0.017788 0.016881
v -0.038572 -0.001842 0.000801
v -0.038996 -0.001633 0.016951
v -0.032201 -0.021431 0.000801
vn -0.4323 -0.7541 0.4943
vn -0.7453 -0.4497 0.4923
vn -0.8036 -0.4927 0.3338
vn -0.4531 -0.8259 0.3356
vn 0.0307 -0.9407 0.3377
vn 0.0138 -0.8675 0.4972
vn -0.4648 -0.8734 0.1453
vn -0.2218 -0.9649 0.1404
vn 0.3058 -0.9412 0.1437
vn 0.3059 -0.9412 0.1430
vn 0.5208 -0.7836 0.3389
vn 0.4763 -0.7241 0.4989
vn 0.7521 -0.6433 0.1428
vn 0.7521 -0.6433 0.1432
vn 0.8576 -0.3871 0.3385
vn 0.7946 -0.3456 0.4992
vn 0.9780 -0.1541 0.1409
vn 0.9778 -0.1540 0.1419
vn 0.9340 0.1212 0.3360
vn 0.8581 0.1391 0.4943
vn 0.9175 0.3721 0.1407
vn 0.7880 0.5980 0.1464
vn 0.7370 0.5875 0.3343
vn 0.6637 0.5642 0.4910
vn 0.3833 0.9122 0.1449
vn 0.3391 0.8789 0.3354
vn 0.2946 0.8178 0.4943
vn -0.1140 0.9833 0.1422
vn -0.1281 0.9340 0.3336
vn -0.1337 0.8593 0.4937
vn -0.5720 0.8080 0.1416
vn -0.5519 0.7649 0.3322
vn -0.5193 0.6990 0.4916
vn -0.8896 0.4335 0.1437
vn -0.8458 0.4165 0.3333
vn -0.7835 0.3808 0.4910
vn -0.9883 -0.0505 0.1439
vn -0.9416 -0.0407 0.3342
vn -0.8698 -0.0314 0.4924
vn -0.8378 -0.5267 0.1437
vn -0.9940 -0.0576 0.0934
vn -0.8375 -0.5384 0.0938
vn -0.4580 -0.8839 0.0943
vn -0.8349 -0.5453 0.0748
vn -0.4506 -0.8896 0.0752
vn -0.2058 -0.9759 0.0726
vn -0.2132 -0.9727 0.0913
vn 0.3144 -0.9447 0.0937
vn 0.3209 -0.9442 0.0743
vn 0.3209 -0.9442 0.0742
vn 0.3145 -0.9447 0.0934
vn 0.7556 -0.6483 0.0933
vn 0.7564 -0.6500 0.0739
vn 0.9824 -0.1621 0.0930
vn 0.9832 -0.1669 0.0739
vn 0.9832 -0.1669 0.0740
vn 0.9824 -0.1620 0.0932
vn 0.9277 0.3620 0.0919
vn 0.9325 0.3536 0.0730
vn 0.9325 0.3537 0.0731
vn 0.9276 0.3621 0.0923
vn 0.6184 0.7806 0.0909
vn 0.6261 0.7765 0.0718
vn 0.4059 0.9109 0.0745
vn 0.3977 0.9127 0.0940
vn -0.0978 0.9925 0.0740
vn -0.1044 0.9902 0.0932
vn -0.5703 0.8181 0.0736
vn -0.5722 0.8148 0.0927
vn -0.8981 0.4336 0.0739
vn -0.8959 0.4343 0.0929
vn -0.9952 -0.0636 0.0740
vn -0.8993 0.4320 0.0682
vn -0.9954 -0.0680 0.0675
vn -0.8306 -0.5527 0.0684
vn -0.4446 -0.8930 0.0692
vn -0.2027 -0.9770 0.0666
vn 0.3240 -0.9436 0.0680
vn 0.7562 -0.6508 0.0677
vn 0.9834 -0.1686 0.0671
vn 0.9344 0.3497 0.0672
vn 0.6291 0.7746 0.0655
vn 0.4125 0.9084 0.0678
vn -0.0929 0.9934 0.0671
vn -0.5707 0.8184 0.0673
vn 0.0409 -0.0588 0.9974
vn 0.0644 -0.0311 0.9974
vn 0.0645 -0.0308 0.9974
vn 0.0594 0.0398 0.9974
vn 0.0596 0.0395 0.9974
vn 0.0716 0.0049 0.9974
vn 0.0316 0.0642 0.9974
vn 0.0320 0.0641 0.9974
vn -0.0049 0.0711 0.9975
vn -0.0045 0.0712 0.9975
vn -0.0400 0.0593 0.9974
vn -0.0403 0.0591 0.9974
vn -0.0645 0.0306 0.9974
vn -0.0646 0.0305 0.9974
vn -0.0712 -0.0061 0.9974
vn -0.0712 -0.0068 0.9974
vn -0.0585 -0.0411 0.9974
vn -0.0581 -0.0418 0.9974
vn -0.0299 -0.0651 0.9974
vn -0.0296 -0.0652 0.9974
vn 0.0064 -0.0713 0.9974
vn 0.0069 -0.0712 0.9974
vn 0.5755 -0.8132 -0.0861
vn 0.3568 -0.9314 -0.0726
vn 0.3624 -0.9287 -0.0785
vn 0.5815 -0.8093 -0.0835
vn 0.8866 -0.4550 -0.0833
vn 0.8950 -0.4371 -0.0889
vn 0.5887 -0.8045 -0.0791
vn 0.8805 -0.4677 -0.0773
vn 0.9594 -0.2714 -0.0763
vn 0.9660 -0.2464 -0.0789
vn 0.9714 -0.2238 -0.0790
vn 0.9221 0.3787 -0.0796
vn 0.9093 0.4100 -0.0715
vn 0.8243 0.5614 -0.0729
vn 0.8277 0.5551 -0.0816
vn 0.8290 0.5528 -0.0854
vn 0.9315 0.3544 -0.0827
vn 0.7168 0.6935 -0.0722
vn 0.6991 0.7106 -0.0801
vn 0.6836 0.7250 -0.0837
vn 0.1312 0.9885 -0.0753
vn 0.1000 0.9922 -0.0745
vn -0.1116 0.9910 -0.0741
vn -0.0958 0.9922 -0.0793
vn -0.0723 0.9936 -0.0868
vn 0.1572 0.9846 -0.0767
vn -0.5324 0.8431 -0.0761
vn -0.5434 0.8357 -0.0797
vn -0.5523 0.8295 -0.0831
vn -0.7284 0.6808 -0.0768
vn -0.7365 0.6723 -0.0751
vn -0.7433 0.6654 -0.0685
vn -0.9865 0.1422 -0.0816
vn -0.9878 0.1372 -0.0736
vn -0.9962 -0.0468 -0.0739
vn -0.9942 -0.0679 -0.0836
vn -0.9923 -0.0875 -0.0877
vn -0.9848 0.1497 -0.0875
vn -0.9681 -0.2401 -0.0716
vn -0.9578 -0.2755 -0.0815
vn -0.9497 -0.3019 -0.0835
vn -0.5803 -0.8103 -0.0816
vn -0.5603 -0.8246 -0.0782
vn -0.3915 -0.9170 -0.0763
vn -0.3973 -0.9140 -0.0816
vn -0.4114 -0.9074 -0.0859
vn -0.5993 -0.7964 -0.0816
vn -0.2179 -0.9733 -0.0718
vn -0.2000 -0.9767 -0.0776
vn -0.1874 -0.9785 -0.0860
vn -0.4019 -0.9125 -0.0766
vn -0.2220 -0.9720 -0.0765
vn 0.3689 -0.9262 -0.0782
vn 0.3694 -0.9269 -0.0664
vn 0.5902 -0.8041 -0.0713
vn 0.3686 -0.9274 -0.0633
vn 0.5955 -0.8010 -0.0619
vn 0.8954 -0.4408 -0.0629
vn 0.8855 -0.4588 -0.0729
vn 0.9681 -0.2413 -0.0673
vn 0.9605 -0.2689 -0.0711
vn 0.9068 0.4158 -0.0693
vn 0.9151 0.3977 -0.0664
vn 0.8253 0.5606 -0.0676
vn 0.8244 0.5616 -0.0704
vn 0.7072 0.7039 -0.0666
vn 0.7192 0.6913 -0.0695
vn 0.1016 0.9921 -0.0729
vn 0.1310 0.9891 -0.0679
vn -0.0874 0.9941 -0.0650
vn -0.1031 0.9919 -0.0748
vn -0.5327 0.8438 -0.0643
vn -0.5310 0.8443 -0.0720
vn -0.7303 0.6801 -0.0646
vn -0.7277 0.6827 -0.0658
vn -0.9875 0.1408 -0.0707
vn -0.9855 0.1574 -0.0627
vn -0.9967 -0.0466 -0.0662
vn -0.9965 -0.0464 -0.0697
vn -0.9662 -0.2491 -0.0670
vn -0.9706 -0.2313 -0.0663
vn -0.5657 -0.8213 -0.0741
vn -0.5888 -0.8054 -0.0685
vn -0.4052 -0.9115 -0.0703
vn -0.6236 -0.7804 -0.0455
vn -0.4099 -0.9108 -0.0487
vn -0.1712 -0.9840 -0.0486
vn -0.2038 -0.9766 -0.0688
vn -0.1557 -0.9871 -0.0381
vn 0.3717 -0.9268 -0.0539
vn 0.3755 -0.9259 -0.0408
vn 0.3719 -0.9267 -0.0532
vn 0.7882 -0.6141 -0.0391
vn 0.7894 -0.6131 -0.0309
vn 0.9185 -0.3942 -0.0297
vn 0.9093 -0.4138 -0.0442
vn 0.9953 0.0928 -0.0260
vn 0.9948 0.0904 -0.0462
vn 0.8285 0.5595 -0.0229
vn 0.8276 0.5597 -0.0427
vn 0.4583 0.8885 -0.0249
vn 0.4509 0.8914 -0.0459
vn -0.0321 0.9989 -0.0328
vn -0.0562 0.9973 -0.0462
vn -0.2918 0.9558 -0.0366
vn -0.2931 0.9551 -0.0428
vn -0.7345 0.6764 -0.0540
vn -0.7359 0.6760 -0.0385
vn -0.7345 0.6765 -0.0544
vn -0.9807 0.1900 -0.0460
vn -0.9777 0.2068 -0.0367
vn -0.9980 -0.0535 -0.0322
vn -0.9977 -0.0493 -0.0471
vn -0.9518 -0.3058 -0.0257
vn -0.9570 -0.2866 -0.0454
vn -0.6406 -0.7674 -0.0272
vn -0.0000 -0.0000 -1.0000
vn 0.0001 -0.0000 1.0000
vt 0.634605 0.360787
vt 0.726505 0.297438
vt 0.651301 0.315143
vt 0.767386 0.270455
vt 0.622962 0.406156
vt 0.704416 0.340289
vt 0.616980 0.545824
vt 0.765118 0.455634
vt 0.615444 0.496351
vt 0.724959 0.427330
vt 0.617327 0.450289
vt 0.703650 0.386017
vt 0.648784 0.707453
vt 0.894572 0.392383
vt 0.632572 0.651298
vt 0.863838 0.439337
vt 0.622459 0.597664
vt 0.815819 0.461239
vt 0.703390 0.225908
vt 0.703390 0.812032
vt 0.863717 0.288306
vt 0.672411 0.762706
vt 0.894572 0.335031
vt 0.673089 0.270910
vt 0.815969 0.266435
vt 0.602221 0.294030
vt 0.626157 0.241111
vt 0.660200 0.185762
vt 0.656521 0.847781
vt 0.579571 0.215631
vt 0.611247 0.153970
vt 0.603931 0.877718
vt 0.571077 0.810991
vt 0.621362 0.788293
vt 0.547412 0.745261
vt 0.597220 0.727305
vt 0.530933 0.681131
vt 0.580663 0.667777
vt 0.520327 0.618705
vt 0.569654 0.609024
vt 0.514841 0.558407
vt 0.563864 0.551719
vt 0.513805 0.500020
vt 0.562710 0.498029
vt 0.517209 0.443429
vt 0.565774 0.447040
vt 0.525248 0.387602
vt 0.573158 0.397324
vt 0.537548 0.331219
vt 0.584980 0.345469
vt 0.555396 0.274327
vt 0.489393 0.317925
vt 0.507135 0.256293
vt 0.530626 0.192640
vt 0.457482 0.239927
vt 0.480059 0.171592
vt 0.509360 0.101477
vt 0.492929 0.925815
vt 0.560623 0.126503
vt 0.548998 0.903095
vt 0.463802 0.849756
vt 0.518571 0.831154
vt 0.443205 0.774475
vt 0.495972 0.761018
vt 0.429225 0.702839
vt 0.480501 0.692663
vt 0.420313 0.633107
vt 0.470584 0.626564
vt 0.415634 0.565708
vt 0.465464 0.562557
vt 0.415055 0.499953
vt 0.464770 0.500216
vt 0.418853 0.434653
vt 0.468497 0.439043
vt 0.427276 0.369948
vt 0.476686 0.378591
vt 0.440098 0.305255
vt 0.377192 0.362271
vt 0.389649 0.294337
vt 0.407128 0.225739
vt 0.427228 0.153211
vt 0.458608 0.077710
vt 0.436023 0.947559
vt 0.406937 0.866079
vt 0.388812 0.785519
vt 0.377152 0.710418
vt 0.369844 0.637986
vt 0.365459 0.567456
vt 0.364727 0.498564
vt 0.367931 0.429720
vt 0.370976 0.361293
vt 0.383956 0.293065
vt 0.400778 0.223991
vt 0.420275 0.150746
vt 0.452065 0.072630
vt 0.428667 0.952226
vt 0.399450 0.868326
vt 0.381891 0.786758
vt 0.370602 0.711350
vt 0.363440 0.638650
vt 0.359148 0.567696
vt 0.358418 0.498510
vt 0.361628 0.429022
vt 0.307122 0.495854
vt 0.311885 0.423855
vt 0.319632 0.358008
vt 0.259000 0.417966
vt 0.265761 0.353482
vt 0.277451 0.273425
vt 0.332441 0.284163
vt 0.292555 0.196217
vt 0.348289 0.210113
vt 0.309966 0.117268
vt 0.368034 0.132449
vt 0.330931 0.029650
vt 0.290246 0.972469
vt 0.392385 0.048680
vt 0.359389 0.965289
vt 0.279906 0.894685
vt 0.341226 0.882729
vt 0.268182 0.807204
vt 0.326639 0.799046
vt 0.260310 0.732806
vt 0.317468 0.722529
vt 0.254198 0.646614
vt 0.310458 0.642684
vt 0.252647 0.562744
vt 0.307370 0.564723
vt 0.254030 0.495793
vt 0.194818 0.564782
vt 0.196336 0.493674
vt 0.201183 0.413021
vt 0.135571 0.488526
vt 0.141099 0.406941
vt 0.148688 0.334022
vt 0.208765 0.344539
vt 0.159786 0.253834
vt 0.220461 0.262719
vt 0.171983 0.174691
vt 0.234157 0.185146
vt 0.185835 0.095317
vt 0.249242 0.106181
vt 0.200302 0.009739
vt 0.152051 0.985838
vt 0.266253 0.017865
vt 0.220915 0.979871
vt 0.147922 0.906157
vt 0.214278 0.902159
vt 0.142173 0.819402
vt 0.206242 0.813275
vt 0.136502 0.740026
vt 0.200632 0.736699
vt 0.133054 0.653577
vt 0.195999 0.650925
vt 0.132476 0.565466
vt 0.068044 0.654914
vt 0.067252 0.565989
vt 0.070627 0.481901
vt 0.000130 0.566527
vt 0.928487 0.033508
vt 0.003593 0.476516
vt 0.862062 0.000130
vt 0.011086 0.389721
vt 0.789814 0.005687
vt 0.076834 0.399283
vt 0.020619 0.310274
vt 0.734184 0.043972
vt 0.085355 0.321891
vt 0.032171 0.232360
vt 0.703650 0.104085
vt 0.096818 0.242491
vt 0.043960 0.155047
vt 0.705350 0.171558
vt 0.108507 0.165014
vt 0.056153 0.078691
vt 0.739271 0.229207
vt 0.121146 0.087005
vt 0.067656 0.000130
vt 0.015485 0.999870
vt 0.798275 0.264547
vt 0.133209 0.005263
vt 0.083234 0.993581
vt 0.012128 0.915635
vt 0.868900 0.266176
vt 0.079662 0.910737
vt 0.007581 0.829409
vt 0.931916 0.231077
vt 0.074827 0.824388
vt 0.003205 0.744075
vt 0.967825 0.169743
vt 0.070879 0.742360
vt 0.001071 0.656762
vt 0.967825 0.097115
s 1
usemtl Material.001
f 12/24/1 2/3/2 13/26/3 14/27/4
f 12/24/1 14/27/4 15/28/5 10/19/6
f 15/28/5 14/27/4 16/30/7 17/31/8
f 15/29/5 17/32/9 18/33/10 19/34/11
f 15/29/5 19/34/11 11/22/12 10/20/6
f 19/34/11 18/33/13 20/35/14 21/36/15
f 19/34/11 21/36/15 7/13/16 11/22/12
f 21/36/15 20/35/17 22/37/18 23/38/19
f 21/36/15 23/38/19 8/15/20 7/13/16
f 23/38/19 22/37/21 24/39/22 25/40/23
f 23/38/19 25/40/23 9/17/24 8/15/20
f 25/40/23 24/39/22 26/41/25 27/42/26
f 25/40/23 27/42/26 4/7/27 9/17/24
f 27/42/26 26/41/25 28/43/28 29/44/29
f 27/42/26 29/44/29 5/9/30 4/7/27
f 29/44/29 28/43/28 30/45/31 31/46/32
f 29/44/29 31/46/32 6/11/33 5/9/30
f 31/46/32 30/45/31 32/47/34 33/48/35
f 31/46/32 33/48/35 3/5/36 6/11/33
f 33/48/35 32/47/34 34/49/37 35/50/38
f 33/48/35 35/50/38 1/1/39 3/5/36
f 35/50/38 34/49/37 36/51/40 13/26/3
f 35/50/38 13/26/3 2/3/2 1/1/39
f 36/51/40 34/49/37 37/52/41 38/53/42
f 36/51/40 38/53/42 39/54/43 16/30/7
f 36/51/40 16/30/7 14/27/4 13/26/3
f 39/54/43 38/53/42 40/55/44 41/56/45
f 39/54/43 41/56/45 42/57/46 43/59/47
f 39/54/43 43/59/47 17/31/8 16/30/7
f 43/60/48 42/58/49 44/61/50 45/62/51
f 43/60/48 45/62/51 18/33/10 17/32/9
f 45/62/52 44/61/53 46/63/53 47/64/52
f 45/62/52 47/64/52 20/35/14 18/33/13
f 47/64/54 46/63/55 48/65/56 49/66/57
f 47/64/54 49/66/57 22/37/18 20/35/17
f 49/66/58 48/65/59 50/67/60 51/68/61
f 49/66/58 51/68/61 24/39/22 22/37/21
f 51/68/62 50/67/63 52/69/64 53/70/65
f 51/68/62 53/70/65 26/41/25 24/39/22
f 53/70/65 52/69/64 54/71/66 55/72/67
f 53/70/65 55/72/67 28/43/28 26/41/25
f 55/72/67 54/71/66 56/73/68 57/74/69
f 55/72/67 57/74/69 30/45/31 28/43/28
f 57/74/69 56/73/68 58/75/70 59/76/71
f 57/74/69 59/76/71 32/47/34 30/45/31
f 59/76/71 58/75/70 60/77/72 37/52/41
f 59/76/71 37/52/41 34/49/37 32/47/34
f 60/77/72 58/75/70 61/78/73 62/79/74
f 60/77/72 62/79/74 63/80/75 40/55/44
f 60/77/72 40/55/44 38/53/42 37/52/41
f 63/80/75 64/81/76 41/56/45 40/55/44
f 64/81/76 65/82/77 42/57/46 41/56/45
f 65/83/78 66/84/78 44/61/50 42/58/49
f 66/84/79 67/85/79 46/63/53 44/61/53
f 67/85/80 68/86/80 48/65/56 46/63/55
f 68/86/81 69/87/81 50/67/60 48/65/59
f 69/87/82 70/88/83 52/69/64 50/67/63
f 70/88/83 71/89/84 54/71/66 52/69/64
f 71/89/84 72/90/85 56/73/68 54/71/66
f 72/90/85 61/78/73 58/75/70 56/73/68
f 72/90/86 84/103/86 73/91/87 61/78/88
f 75/93/89 63/80/90 62/79/91 74/92/91
f 76/94/92 64/81/93 63/80/90 75/93/89
f 77/95/94 65/82/95 64/81/93 76/94/92
f 78/97/96 66/84/97 65/83/95 77/96/94
f 79/98/98 67/85/99 66/84/97 78/97/96
f 80/99/100 68/86/101 67/85/99 79/98/98
f 81/100/102 69/87/103 68/86/101 80/99/100
f 82/101/104 70/88/105 69/87/103 81/100/102
f 83/102/106 71/89/107 70/88/105 82/101/104
f 72/90/86 71/89/107 83/102/106 84/103/86
f 84/103/108 83/102/109 85/104/110 86/105/111
f 84/103/108 86/105/111 87/106/112 73/91/113
f 62/79/91 61/78/88 73/91/87 74/92/91
f 87/106/112 86/105/111 88/107/114 89/108/115
f 87/106/112 89/108/115 90/109/116 91/110/117
f 87/106/112 91/110/117 74/92/118 73/91/113
f 91/110/119 90/109/120 92/111/121 93/112/122
f 91/110/119 93/112/122 75/93/123 74/92/124
f 93/112/122 92/111/121 94/113/125 95/114/126
f 93/112/122 95/114/126 76/94/127 75/93/123
f 95/114/128 94/113/129 96/115/130 97/117/131
f 95/114/128 97/117/131 77/95/132 76/94/133
f 97/118/131 96/116/130 98/119/134 99/120/135
f 97/118/131 99/120/135 78/97/136 77/96/132
f 99/120/135 98/119/134 100/121/137 101/122/138
f 99/120/135 101/122/138 79/98/139 78/97/136
f 101/122/140 100/121/141 102/123/142 103/124/143
f 101/122/140 103/124/143 80/99/144 79/98/145
f 103/124/143 102/123/142 104/125/146 105/126/147
f 103/124/143 105/126/147 81/100/148 80/99/144
f 105/126/149 104/125/150 106/127/151 107/128/152
f 105/126/149 107/128/152 82/101/153 81/100/154
f 107/128/152 106/127/151 108/129/155 85/104/156
f 107/128/152 85/104/156 83/102/157 82/101/153
f 108/129/155 106/127/151 109/130/158 110/131/159
f 108/129/160 110/131/161 111/132/162 88/107/114
f 108/129/160 88/107/114 86/105/111 85/104/110
f 111/132/162 110/131/161 112/133/163 113/134/164
f 111/132/162 113/134/164 114/135/165 115/136/166
f 111/132/162 115/136/166 89/108/115 88/107/114
f 115/136/166 114/135/165 116/137/167 117/138/168
f 115/136/166 117/138/168 90/109/116 89/108/115
f 117/138/169 116/137/170 118/139/171 119/140/172
f 117/138/169 119/140/172 92/111/121 90/109/120
f 119/140/172 118/139/171 120/141/173 121/142/174
f 119/140/172 121/142/174 94/113/125 92/111/121
f 121/142/175 120/141/176 122/143/177 123/145/178
f 121/142/175 123/145/178 96/115/130 94/113/129
f 123/146/178 122/144/177 124/147/179 125/148/180
f 123/146/178 125/148/180 98/119/134 96/116/130
f 125/148/180 124/147/179 126/149/181 127/150/182
f 125/148/180 127/150/182 100/121/137 98/119/134
f 127/150/183 126/149/184 128/151/185 129/152/186
f 127/150/183 129/152/186 102/123/142 100/121/141
f 129/152/186 128/151/185 130/153/187 131/154/188
f 129/152/186 131/154/188 104/125/146 102/123/142
f 131/154/189 130/153/190 132/155/191 109/130/158
f 131/154/189 109/130/158 106/127/151 104/125/150
f 132/155/191 130/153/190 133/156/192 134/157/193
f 132/155/191 134/157/193 135/158/194 112/133/195
f 132/155/191 112/133/195 110/131/159 109/130/158
f 135/158/194 134/157/193 136/159/196 137/161/196
f 135/158/197 137/161/198 138/163/198 139/165/199
f 135/158/197 139/165/199 113/134/164 112/133/163
f 139/165/200 138/163/201 140/166/202 141/168/203
f 139/165/200 141/168/203 114/135/165 113/134/164
f 141/168/203 140/166/202 142/169/204 143/171/205
f 141/168/203 143/171/205 116/137/167 114/135/165
f 143/171/205 142/169/204 144/172/206 145/174/207
f 143/171/205 145/174/207 118/139/171 116/137/170
f 145/174/207 144/172/206 146/175/208 147/177/209
f 145/174/207 147/177/209 120/141/173 118/139/171
f 147/177/209 146/175/208 148/178/210 149/181/211
f 147/177/209 149/181/211 122/143/177 120/141/176
f 149/182/211 148/179/210 150/183/212 151/185/213
f 149/182/211 151/185/213 124/147/179 122/144/177
f 151/185/214 150/183/215 152/186/215 153/188/216
f 151/185/214 153/188/216 126/149/181 124/147/179
f 153/188/217 152/186/218 154/189/219 155/191/220
f 153/188/217 155/191/220 128/151/185 126/149/184
f 155/191/220 154/189/219 156/192/221 133/156/222
f 155/191/220 133/156/222 130/153/187 128/151/185
f 156/192/223 136/159/223 134/157/193 133/156/192
f 138/164/224 137/162/224 136/160/224 156/193/224 154/190/224 152/187/224 150/184/224 148/180/224 146/176/224 144/173/224 142/170/224 140/167/224
f 12/25/225 10/21/225 11/23/225 7/14/225 8/16/225 9/18/225 4/8/225 5/10/225 6/12/225 3/6/225 1/2/225 2/4/225
